<svg width="15" height="18" viewBox="0 0 15 18" fill="none" xmlns="http://www.w3.org/2000/svg">
<path fill-rule="evenodd" clip-rule="evenodd" d="M0.779835 8.93064C0.779835 7.94658 0.863032 7.32207 2.91811 5.80081C4.61949 4.54132 10.073 0.237366 10.073 0.237366V7.42203H14.2203V17.7626H2.07518C1.36275 17.7626 0.779633 17.1843 0.779633 16.4778L0.779835 8.9307V8.93064Z" fill="#3E9CDC"/>
<path fill-rule="evenodd" clip-rule="evenodd" d="M10.073 7.42194V11.5849L2.45212 16.7335L12.0874 13.6246V7.42194H10.073Z" fill="black" fill-opacity="0.2"/>
<path fill-rule="evenodd" clip-rule="evenodd" d="M6.5904 7.20678C7.03609 6.68017 7.68696 6.4943 8.04435 6.79166C8.40174 7.08909 8.3303 7.75713 7.8846 8.28374C7.43925 8.81029 6.78811 8.99596 6.43072 8.69853C6.07333 8.40117 6.14497 7.73327 6.5904 7.20672V7.20678Z" fill="#231F20"/>
</svg>
